
<svg width="456px" height="582px" viewBox="0 0 456 582" version="1.1" xmlns="http://www.w3.org/2000/svg" xmlns:xlink="http://www.w3.org/1999/xlink" style="">
    <defs>
        <radialGradient cx="50%" cy="0%" fx="50%" fy="0%" r="152.036697%" gradientTransform="translate(0.500000,0.000000),scale(1.000000,0.651394),rotate(-90.000000),translate(-0.500000,-0.000000)" id="radialGradient-1">
            <stop stop-color="#443EDF" offset="0%"></stop>
            <stop stop-color="#131060" offset="100%"></stop>
        </radialGradient>
    </defs>
    <g id="Getwork." stroke="none" stroke-width="1" fill="none" fill-rule="evenodd">
        <g id="Login" transform="translate(-184.000000, -204.000000)" fill-rule="nonzero">
            <g id="Art" transform="translate(184.000000, 204.000000)">
                <g class="box-2" id="Group-2" transform="translate(116.000000, 0.000000)">
                    <g id="Group-4" fill="#2569FF">
                        <path d="M0,19 L4.2,13.3228291 L7,1.02229219 C5.94706189,0.86969917 5.01372855,1.50049594 4.2,2.91468248 C3.38627145,4.32886903 1.98627145,9.69064154 0,19 Z" id="Path-3" class="XpXZwoZe_0"></path>
                        <path d="M339,493 C338.792196,497.233863 336.946042,500.716776 333.461538,503.44874 C332.426117,504.260544 324.363797,510.785399 319.615385,513.89748 C318.277288,514.77446 316.738826,510.025033 315,499.649198 L326.076923,494.899771 L339,493 Z" id="Path-4" class="XpXZwoZe_1"></path>
                        <path d="M16.2465717,0.40311715 L311.854022,55.238079 C324.856674,57.6378136 332.930782,60.918532 336.076343,65.0802343 C339.221905,69.2419366 340.47614,78.302982 339.839047,92.2633705 L339.839047,488.762219 C339.801121,493.298233 338.860445,496.735182 337.017019,499.073064 C335.173593,501.410946 332.665125,502.348295 329.491613,501.885112 L20.9499506,444.706791 C14.6787787,443.456992 10.2889583,441.582293 7.78048946,439.082694 C5.27202066,436.583096 4.01778626,431.583898 4.01778626,424.085102 L4.01778626,12.588661 C3.88340245,6.47357275 4.51051965,2.72417466 5.89913786,1.34046667 C7.28775607,-0.0432413109 10.7369007,-0.355691152 16.2465717,0.40311715 Z" id="Path-2" class="XpXZwoZe_2"></path>
                    </g>
                    <path d="M11.9185385,12.4031171 L299.607932,67.238079 C312.262299,69.6378136 320.120136,72.918532 323.181441,77.0802343 C326.242747,81.2419366 327.463386,90.302982 326.843358,104.26337 L326.843358,500.762219 C326.806448,505.298233 325.890969,508.735182 324.09692,511.073064 C322.302872,513.410946 319.861594,514.348295 316.773087,513.885112 L16.4959341,456.706791 C10.3927399,455.456992 6.12050402,453.582293 3.67922635,451.082694 C1.23794868,448.583096 0.0173098433,443.583898 0.0173098433,436.085102 L0.0173098433,24.588661 C-0.113474397,18.4735728 0.49684502,14.7241747 1.8482681,13.3404667 C3.19969117,11.9567587 6.55644797,11.6443088 11.9185385,12.4031171 Z" id="Path-2" fill="url(#radialGradient-1)" class="XpXZwoZe_3"></path>
                    <path id="Oval" fill="#06DCCE" d="M60,113A27.5,27 0,1,1 115,113A27.5,27 0,1,1 60,113" class="XpXZwoZe_4"></path>
                    <path id="Oval" fill="#06DCCE" d="M205,347A27.5,27 0,1,1 260,347A27.5,27 0,1,1 205,347" class="XpXZwoZe_5"></path>
                    <path id="Rectangle-3" fill="#06DCCE" transform="translate(208.500000, 113.500000) rotate(11.000000) translate(-208.500000, -113.500000) " width="123" height="15" d="M 154,106 L 263,106 A 7,7,0,0,1,270,113 L 270,114 A 7,7,0,0,1,263,121 L 154,121 A 7,7,0,0,1,147,114 L 147,113 A 7,7,0,0,1,154,106" class="XpXZwoZe_6"></path>
                    <path id="Rectangle-3" fill="#3758CF" transform="translate(207.000000, 137.500000) rotate(11.000000) translate(-207.000000, -137.500000) " width="120" height="15" d="M 154,130 L 260,130 A 7,7,0,0,1,267,137 L 267,138 A 7,7,0,0,1,260,145 L 154,145 A 7,7,0,0,1,147,138 L 147,137 A 7,7,0,0,1,154,130" class="XpXZwoZe_7"></path>
                    <path id="Rectangle-3" fill="#3758CF" transform="translate(243.500000, 170.500000) rotate(11.000000) translate(-243.500000, -170.500000) " width="33" height="15" d="M 234,163 L 253,163 A 7,7,0,0,1,260,170 L 260,171 A 7,7,0,0,1,253,178 L 234,178 A 7,7,0,0,1,227,171 L 227,170 A 7,7,0,0,1,234,163" class="XpXZwoZe_8"></path>
                    <path id="Rectangle-3" fill="#06DCCE" transform="translate(202.500000, 163.500000) rotate(11.000000) translate(-202.500000, -163.500000) " width="33" height="15" d="M 193,156 L 212,156 A 7,7,0,0,1,219,163 L 219,164 A 7,7,0,0,1,212,171 L 193,171 A 7,7,0,0,1,186,164 L 186,163 A 7,7,0,0,1,193,156" class="XpXZwoZe_9"></path>
                    <path id="Rectangle-3" fill="#3758CF" transform="translate(163.500000, 155.500000) rotate(11.000000) translate(-163.500000, -155.500000) " width="33" height="15" d="M 154,148 L 173,148 A 7,7,0,0,1,180,155 L 180,156 A 7,7,0,0,1,173,163 L 154,163 A 7,7,0,0,1,147,156 L 147,155 A 7,7,0,0,1,154,148" class="XpXZwoZe_10"></path>
                    <path id="Rectangle-3" fill="#06DCCE" transform="translate(115.500000, 303.500000) rotate(11.000000) translate(-115.500000, -303.500000) " width="123" height="15" d="M 61,296 L 170,296 A 7,7,0,0,1,177,303 L 177,304 A 7,7,0,0,1,170,311 L 61,311 A 7,7,0,0,1,54,304 L 54,303 A 7,7,0,0,1,61,296" class="XpXZwoZe_11"></path>
                    <path id="Rectangle-3" fill="#3758CF" transform="translate(114.000000, 327.500000) rotate(11.000000) translate(-114.000000, -327.500000) " width="120" height="15" d="M 61,320 L 167,320 A 7,7,0,0,1,174,327 L 174,328 A 7,7,0,0,1,167,335 L 61,335 A 7,7,0,0,1,54,328 L 54,327 A 7,7,0,0,1,61,320" class="XpXZwoZe_12"></path>
                    <path id="Rectangle-3" fill="#3758CF" transform="translate(150.500000, 361.500000) rotate(11.000000) translate(-150.500000, -361.500000) " width="33" height="15" d="M 141,354 L 160,354 A 7,7,0,0,1,167,361 L 167,362 A 7,7,0,0,1,160,369 L 141,369 A 7,7,0,0,1,134,362 L 134,361 A 7,7,0,0,1,141,354" class="XpXZwoZe_13"></path>
                    <path id="Rectangle-3" fill="#06DCCE" transform="translate(109.500000, 353.500000) rotate(11.000000) translate(-109.500000, -353.500000) " width="33" height="15" d="M 100,346 L 119,346 A 7,7,0,0,1,126,353 L 126,354 A 7,7,0,0,1,119,361 L 100,361 A 7,7,0,0,1,93,354 L 93,353 A 7,7,0,0,1,100,346" class="XpXZwoZe_14"></path>
                    <path id="Rectangle-3" fill="#3758CF" transform="translate(70.500000, 346.500000) rotate(11.000000) translate(-70.500000, -346.500000) " width="33" height="15" d="M 61,339 L 80,339 A 7,7,0,0,1,87,346 L 87,347 A 7,7,0,0,1,80,354 L 61,354 A 7,7,0,0,1,54,347 L 54,346 A 7,7,0,0,1,61,339" class="XpXZwoZe_15"></path>
                    <path id="Rectangle-3" fill="#3758CF" transform="translate(158.500000, 190.000000) rotate(11.000000) translate(-158.500000, -190.000000) " width="207" height="12" d="M 61,184 L 256,184 A 6,6,0,0,1,262,190 L 262,190 A 6,6,0,0,1,256,196 L 61,196 A 6,6,0,0,1,55,190 L 55,190 A 6,6,0,0,1,61,184" class="XpXZwoZe_16"></path>
                    <path id="Rectangle-3" fill="#3758CF" transform="translate(130.500000, 208.000000) rotate(11.000000) translate(-130.500000, -208.000000) " width="151" height="12" d="M 61,202 L 200,202 A 6,6,0,0,1,206,208 L 206,208 A 6,6,0,0,1,200,214 L 61,214 A 6,6,0,0,1,55,208 L 55,208 A 6,6,0,0,1,61,202" class="XpXZwoZe_17"></path>
                    <path id="Rectangle-3" fill="#3758CF" transform="translate(154.500000, 398.000000) rotate(11.000000) translate(-154.500000, -398.000000) " width="207" height="12" d="M 57,392 L 252,392 A 6,6,0,0,1,258,398 L 258,398 A 6,6,0,0,1,252,404 L 57,404 A 6,6,0,0,1,51,398 L 51,398 A 6,6,0,0,1,57,392" class="XpXZwoZe_18"></path>
                    <path id="Rectangle-3" fill="#3758CF" transform="translate(125.500000, 416.000000) rotate(11.000000) translate(-125.500000, -416.000000) " width="151" height="12" d="M 56,410 L 195,410 A 6,6,0,0,1,201,416 L 201,416 A 6,6,0,0,1,195,422 L 56,422 A 6,6,0,0,1,50,416 L 50,416 A 6,6,0,0,1,56,410" class="XpXZwoZe_19"></path>
                    <path id="Rectangle-3" fill="#3758CF" transform="translate(145.500000, 237.000000) rotate(11.000000) translate(-145.500000, -237.000000) " width="185" height="12" d="M 59,231 L 232,231 A 6,6,0,0,1,238,237 L 238,237 A 6,6,0,0,1,232,243 L 59,243 A 6,6,0,0,1,53,237 L 53,237 A 6,6,0,0,1,59,231" class="XpXZwoZe_20"></path>
                    <path id="Rectangle-3" fill="#3758CF" transform="translate(153.500000, 263.000000) rotate(11.000000) translate(-153.500000, -263.000000) " width="207" height="12" d="M 56,257 L 251,257 A 6,6,0,0,1,257,263 L 257,263 A 6,6,0,0,1,251,269 L 56,269 A 6,6,0,0,1,50,263 L 50,263 A 6,6,0,0,1,56,257" class="XpXZwoZe_21"></path>
                </g>
                <g class="box-1" id="Group-2" transform="translate(0.000000, 68.000000)">
                    <g id="Group-3" fill="#2569FF">
                        <path d="M0,19 L4.2,13.3228291 L7,1.02229219 C5.94706189,0.86969917 5.01372855,1.50049594 4.2,2.91468248 C3.38627145,4.32886903 1.98627145,9.69064154 0,19 Z" id="Path-3" class="XpXZwoZe_22"></path>
                        <path d="M339,493 C338.792196,497.233863 336.946042,500.716776 333.461538,503.44874 C332.426117,504.260544 324.363797,510.785399 319.615385,513.89748 C318.277288,514.77446 316.738826,510.025033 315,499.649198 L326.076923,494.899771 L339,493 Z" id="Path-4" class="XpXZwoZe_23"></path>
                        <path d="M16.2465717,0.40311715 L311.854022,55.238079 C324.856674,57.6378136 332.930782,60.918532 336.076343,65.0802343 C339.221905,69.2419366 340.47614,78.302982 339.839047,92.2633705 L339.839047,488.762219 C339.801121,493.298233 338.860445,496.735182 337.017019,499.073064 C335.173593,501.410946 332.665125,502.348295 329.491613,501.885112 L20.9499506,444.706791 C14.6787787,443.456992 10.2889583,441.582293 7.78048946,439.082694 C5.27202066,436.583096 4.01778626,431.583898 4.01778626,424.085102 L4.01778626,12.588661 C3.88340245,6.47357275 4.51051965,2.72417466 5.89913786,1.34046667 C7.28775607,-0.0432413109 10.7369007,-0.355691152 16.2465717,0.40311715 Z" id="Path-2" class="XpXZwoZe_24"></path>
                    </g>
                    <path d="M11.9185385,12.4031171 L299.607932,67.238079 C312.262299,69.6378136 320.120136,72.918532 323.181441,77.0802343 C326.242747,81.2419366 327.463386,90.302982 326.843358,104.26337 L326.843358,500.762219 C326.806448,505.298233 325.890969,508.735182 324.09692,511.073064 C322.302872,513.410946 319.861594,514.348295 316.773087,513.885112 L16.4959341,456.706791 C10.3927399,455.456992 6.12050402,453.582293 3.67922635,451.082694 C1.23794868,448.583096 0.0173098433,443.583898 0.0173098433,436.085102 L0.0173098433,24.588661 C-0.113474397,18.4735728 0.49684502,14.7241747 1.8482681,13.3404667 C3.19969117,11.9567587 6.55644797,11.6443088 11.9185385,12.4031171 Z" id="Path-2" fill="url(#radialGradient-1)" class="XpXZwoZe_25"></path>
                    <path id="Oval" fill="#06DCCE" d="M60,113A27.5,27 0,1,1 115,113A27.5,27 0,1,1 60,113" class="XpXZwoZe_26"></path>
                    <path id="Oval" fill="#06DCCE" d="M205,347A27.5,27 0,1,1 260,347A27.5,27 0,1,1 205,347" class="XpXZwoZe_27"></path>
                    <path id="Rectangle-3" fill="#06DCCE" transform="translate(208.500000, 113.500000) rotate(11.000000) translate(-208.500000, -113.500000) " width="123" height="15" d="M 154,106 L 263,106 A 7,7,0,0,1,270,113 L 270,114 A 7,7,0,0,1,263,121 L 154,121 A 7,7,0,0,1,147,114 L 147,113 A 7,7,0,0,1,154,106" class="XpXZwoZe_28"></path>
                    <path id="Rectangle-3" fill="#3758CF" transform="translate(207.000000, 137.500000) rotate(11.000000) translate(-207.000000, -137.500000) " width="120" height="15" d="M 154,130 L 260,130 A 7,7,0,0,1,267,137 L 267,138 A 7,7,0,0,1,260,145 L 154,145 A 7,7,0,0,1,147,138 L 147,137 A 7,7,0,0,1,154,130" class="XpXZwoZe_29"></path>
                    <path id="Rectangle-3" fill="#3758CF" transform="translate(243.500000, 170.500000) rotate(11.000000) translate(-243.500000, -170.500000) " width="33" height="15" d="M 234,163 L 253,163 A 7,7,0,0,1,260,170 L 260,171 A 7,7,0,0,1,253,178 L 234,178 A 7,7,0,0,1,227,171 L 227,170 A 7,7,0,0,1,234,163" class="XpXZwoZe_30"></path>
                    <path id="Rectangle-3" fill="#06DCCE" transform="translate(202.500000, 163.500000) rotate(11.000000) translate(-202.500000, -163.500000) " width="33" height="15" d="M 193,156 L 212,156 A 7,7,0,0,1,219,163 L 219,164 A 7,7,0,0,1,212,171 L 193,171 A 7,7,0,0,1,186,164 L 186,163 A 7,7,0,0,1,193,156" class="XpXZwoZe_31"></path>
                    <path id="Rectangle-3" fill="#3758CF" transform="translate(163.500000, 155.500000) rotate(11.000000) translate(-163.500000, -155.500000) " width="33" height="15" d="M 154,148 L 173,148 A 7,7,0,0,1,180,155 L 180,156 A 7,7,0,0,1,173,163 L 154,163 A 7,7,0,0,1,147,156 L 147,155 A 7,7,0,0,1,154,148" class="XpXZwoZe_32"></path>
                    <path id="Rectangle-3" fill="#06DCCE" transform="translate(115.500000, 303.500000) rotate(11.000000) translate(-115.500000, -303.500000) " width="123" height="15" d="M 61,296 L 170,296 A 7,7,0,0,1,177,303 L 177,304 A 7,7,0,0,1,170,311 L 61,311 A 7,7,0,0,1,54,304 L 54,303 A 7,7,0,0,1,61,296" class="XpXZwoZe_33"></path>
                    <path id="Rectangle-3" fill="#3758CF" transform="translate(114.000000, 327.500000) rotate(11.000000) translate(-114.000000, -327.500000) " width="120" height="15" d="M 61,320 L 167,320 A 7,7,0,0,1,174,327 L 174,328 A 7,7,0,0,1,167,335 L 61,335 A 7,7,0,0,1,54,328 L 54,327 A 7,7,0,0,1,61,320" class="XpXZwoZe_34"></path>
                    <path id="Rectangle-3" fill="#3758CF" transform="translate(150.500000, 361.500000) rotate(11.000000) translate(-150.500000, -361.500000) " width="33" height="15" d="M 141,354 L 160,354 A 7,7,0,0,1,167,361 L 167,362 A 7,7,0,0,1,160,369 L 141,369 A 7,7,0,0,1,134,362 L 134,361 A 7,7,0,0,1,141,354" class="XpXZwoZe_35"></path>
                    <path id="Rectangle-3" fill="#06DCCE" transform="translate(109.500000, 353.500000) rotate(11.000000) translate(-109.500000, -353.500000) " width="33" height="15" d="M 100,346 L 119,346 A 7,7,0,0,1,126,353 L 126,354 A 7,7,0,0,1,119,361 L 100,361 A 7,7,0,0,1,93,354 L 93,353 A 7,7,0,0,1,100,346" class="XpXZwoZe_36"></path>
                    <path id="Rectangle-3" fill="#3758CF" transform="translate(70.500000, 346.500000) rotate(11.000000) translate(-70.500000, -346.500000) " width="33" height="15" d="M 61,339 L 80,339 A 7,7,0,0,1,87,346 L 87,347 A 7,7,0,0,1,80,354 L 61,354 A 7,7,0,0,1,54,347 L 54,346 A 7,7,0,0,1,61,339" class="XpXZwoZe_37"></path>
                    <path id="Rectangle-3" fill="#3758CF" transform="translate(158.500000, 190.000000) rotate(11.000000) translate(-158.500000, -190.000000) " width="207" height="12" d="M 61,184 L 256,184 A 6,6,0,0,1,262,190 L 262,190 A 6,6,0,0,1,256,196 L 61,196 A 6,6,0,0,1,55,190 L 55,190 A 6,6,0,0,1,61,184" class="XpXZwoZe_38"></path>
                    <path id="Rectangle-3" fill="#3758CF" transform="translate(130.500000, 208.000000) rotate(11.000000) translate(-130.500000, -208.000000) " width="151" height="12" d="M 61,202 L 200,202 A 6,6,0,0,1,206,208 L 206,208 A 6,6,0,0,1,200,214 L 61,214 A 6,6,0,0,1,55,208 L 55,208 A 6,6,0,0,1,61,202" class="XpXZwoZe_39"></path>
                    <path id="Rectangle-3" fill="#3758CF" transform="translate(154.500000, 398.000000) rotate(11.000000) translate(-154.500000, -398.000000) " width="207" height="12" d="M 57,392 L 252,392 A 6,6,0,0,1,258,398 L 258,398 A 6,6,0,0,1,252,404 L 57,404 A 6,6,0,0,1,51,398 L 51,398 A 6,6,0,0,1,57,392" class="XpXZwoZe_40"></path>
                    <path id="Rectangle-3" fill="#3758CF" transform="translate(125.500000, 416.000000) rotate(11.000000) translate(-125.500000, -416.000000) " width="151" height="12" d="M 56,410 L 195,410 A 6,6,0,0,1,201,416 L 201,416 A 6,6,0,0,1,195,422 L 56,422 A 6,6,0,0,1,50,416 L 50,416 A 6,6,0,0,1,56,410" class="XpXZwoZe_41"></path>
                    <path id="Rectangle-3" fill="#3758CF" transform="translate(145.500000, 237.000000) rotate(11.000000) translate(-145.500000, -237.000000) " width="185" height="12" d="M 59,231 L 232,231 A 6,6,0,0,1,238,237 L 238,237 A 6,6,0,0,1,232,243 L 59,243 A 6,6,0,0,1,53,237 L 53,237 A 6,6,0,0,1,59,231" class="XpXZwoZe_42"></path>
                    <path id="Rectangle-3" fill="#3758CF" transform="translate(153.500000, 263.000000) rotate(11.000000) translate(-153.500000, -263.000000) " width="207" height="12" d="M 56,257 L 251,257 A 6,6,0,0,1,257,263 L 257,263 A 6,6,0,0,1,251,269 L 56,269 A 6,6,0,0,1,50,263 L 50,263 A 6,6,0,0,1,56,257" class="XpXZwoZe_43"></path>
                </g>
            </g>
        </g>
    </g>
</svg>

